<svg width="281" height="181" viewBox="0 0 281 181" fill="none" xmlns="http://www.w3.org/2000/svg">
    <g clip-path="url(#clip0_109_79)">
        <path d="M93.9832 172H-29L2.90358 7H37.5516L10.6222 145.271H99.3004L93.9832 172ZM277 7L186.606 172H146.813L120.226 7H155.904L169.283 113.059C169.74 116.486 170.083 120.084 170.312 123.854C170.655 127.509 170.941 130.821 171.169 133.791C171.512 137.447 171.741 140.93 171.855 144.243C173.342 141.045 174.828 137.675 176.315 134.134C177.687 131.164 179.231 127.794 180.946 124.025C182.776 120.37 184.605 116.714 186.435 113.059L240.98 7H277Z" fill="url(#paint0_linear_109_79)"/>
    </g>
    <g clip-path="url(#clip1_109_79)">
        <path d="M133.983 172H11L42.9036 7H77.5516L50.6222 145.271H139.3L133.983 172ZM317 7L226.606 172H186.813L160.226 7H195.904L209.283 113.059C209.74 116.486 210.083 120.084 210.312 123.854C210.655 127.509 210.941 130.821 211.169 133.791C211.512 137.447 211.741 140.93 211.855 144.243C213.342 141.045 214.828 137.675 216.315 134.134C217.687 131.164 219.231 127.794 220.946 124.025C222.776 120.37 224.605 116.714 226.435 113.059L280.98 7H317Z" fill="url(#paint1_linear_109_79)"/>
    </g>
    <defs>
        <linearGradient id="paint0_linear_109_79" x1="-33.4612" y1="7.9113" x2="243.762" y2="137.322" gradientUnits="userSpaceOnUse">
            <stop stop-color="#F59E0B"/>
            <stop offset="1" stop-color="#B45309"/>
        </linearGradient>
        <linearGradient id="paint1_linear_109_79" x1="6.53883" y1="7.9113" x2="283.762" y2="137.322" gradientUnits="userSpaceOnUse">
            <stop stop-color="#F59E0B"/>
            <stop offset="1" stop-color="#B45309"/>
        </linearGradient>
        <clipPath id="clip0_109_79">
            <rect width="168" height="165" fill="white" transform="translate(109 7)"/>
        </clipPath>
        <clipPath id="clip1_109_79">
            <rect width="132" height="165" fill="white" transform="translate(11 7)"/>
        </clipPath>
    </defs>
</svg>


